<svg viewBox="0 0 28 32" fill="none" xmlns="http://www.w3.org/2000/svg">
  <path
    d="M27.9327 7.79751V24.8636C27.9327 25.6736 27.2716 26.3347 26.4616 26.3347C26.0457 26.3347 25.6779 26.1639 25.4065 25.8925C25.135 25.621 24.9643 25.2533 24.9643 24.8636V7.77124C24.9643 5.14872 22.8803 2.96402 20.2315 2.94213C17.7053 2.91586 15.595 4.87728 15.4505 7.35532V24.2988C15.4505 24.3951 15.4505 24.4696 15.4505 24.5703C15.4505 24.5965 15.4505 24.6447 15.4505 24.6666C15.4505 24.6666 15.4505 24.6666 15.4505 24.6928V24.7191C15.3761 26.2646 14.8376 27.6875 13.9795 28.839C13.9313 28.9134 13.8832 28.9616 13.8306 29.036C13.6336 29.2812 13.4147 29.5263 13.1914 29.7452C11.7948 31.1419 9.83336 32 7.69681 32C3.43248 31.9737 0 28.4449 0 24.2025V7.08387C0 6.27391 0.661103 5.61281 1.47106 5.61281C1.88699 5.61281 2.25475 5.78355 2.5262 6.055C2.79765 6.32645 2.9684 6.69421 2.9684 7.08387V24.1981C2.9684 26.8206 5.0524 29.0053 7.70119 29.0272C10.2274 29.0535 12.3377 27.0921 12.5084 24.614V7.64865C12.5084 7.55233 12.5084 7.45164 12.5084 7.35532C12.5084 7.32905 12.5084 7.30716 12.5084 7.28089C12.5828 5.7354 13.1214 4.31249 13.9795 3.16104C14.0276 3.08661 14.0758 3.03845 14.1283 2.96402C14.3254 2.71884 14.5443 2.47366 14.7675 2.25475C16.1642 0.85812 18.1256 0 20.2621 0C24.5221 0.0218908 27.9327 3.55507 27.9327 7.79751Z"
    fill="#E0E0E8" />
  <path
    d="M12.4824 7.35413C12.4824 7.45045 12.4824 7.55115 12.4824 7.64747V24.6172C12.3117 27.0953 10.2276 29.0567 7.67518 29.0304C5.05266 29.0042 2.94238 26.8238 2.94238 24.2013V7.25781C2.99054 9.56073 4.78121 11.474 7.01408 11.8199V22.3887C6.20412 22.6602 5.63933 23.4176 5.63933 24.3239C5.63933 25.4535 6.57188 26.3816 7.69707 26.3816C8.82664 26.3816 9.75481 25.4754 9.75481 24.3239C9.75481 23.4395 9.19002 22.6821 8.38006 22.3887V11.8418C10.5867 11.5221 12.3029 9.70958 12.4518 7.47672C12.4824 7.42856 12.4824 7.3804 12.4824 7.35413Z"
    fill="url(#paint0_linear)" />
  <path
    d="M24.9381 7.25982C24.9381 7.13723 24.9119 7.04091 24.89 6.91832C24.89 6.87017 24.8637 6.82201 24.8637 6.76947C24.8375 6.67315 24.8156 6.57245 24.7893 6.44986C24.2508 4.44028 22.4338 2.91668 20.2535 2.89479C17.7273 2.86852 15.617 4.82994 15.4463 7.30798V24.2777C15.4463 24.3741 15.4463 24.4748 15.4463 24.5711C15.4463 24.5229 15.4463 24.4967 15.4463 24.4485C15.5951 22.2156 17.3114 20.4031 19.518 20.1097V9.6109C18.708 9.33945 18.1432 8.58203 18.1432 7.67575C18.1432 6.54618 19.0758 5.61801 20.201 5.61801C21.3262 5.61801 22.2587 6.52429 22.2587 7.67575C22.2587 8.56014 21.6939 9.31756 20.884 9.6109V20.1316C23.1387 20.4731 24.9075 22.3864 24.9557 24.6937V7.75018C24.9644 7.60132 24.9644 7.43057 24.9381 7.25982Z"
    fill="url(#paint1_linear)" />
  <defs>
    <linearGradient id="paint0_linear" x1="7.68398" y1="8.43112" x2="7.75893" y2="27.8137"
      gradientUnits="userSpaceOnUse">
      <stop offset="0.1416" stop-color="#2C7AFF" />
      <stop offset="0.8162" stop-color="#00D2FF" />
    </linearGradient>
    <linearGradient id="paint1_linear" x1="20.1753" y1="4.06925" x2="20.2506" y2="23.4752"
      gradientUnits="userSpaceOnUse">
      <stop offset="0.161458" stop-color="#00D2FF" />
      <stop offset="0.859375" stop-color="#2C7AFF" />
    </linearGradient>
  </defs>
</svg>
