<svg width="35" height="41" viewBox="0 0 35 41" fill="none" xmlns="http://www.w3.org/2000/svg">
<path d="M34.9159 9.80781V31.1701C34.9159 32.1839 34.0895 33.0115 33.077 33.0115C32.5571 33.0115 32.0974 32.7977 31.7581 32.458C31.4188 32.1182 31.2054 31.6578 31.2054 31.1701V9.77493C31.2054 6.49222 28.6004 3.75754 25.2894 3.73014C22.1316 3.69725 19.4938 6.15244 19.3132 9.2543V30.4631C19.3132 30.5837 19.3132 30.6769 19.3132 30.8029C19.3132 30.8358 19.3132 30.8961 19.3132 30.9235C19.3132 30.9235 19.3132 30.9235 19.3132 30.9563V30.9892C19.2201 32.9238 18.547 34.7049 17.4743 36.1462C17.4141 36.2394 17.3539 36.2997 17.2883 36.3928C17.042 36.6997 16.7684 37.0066 16.4893 37.2806C14.7435 39.0289 12.2917 40.103 9.62101 40.103C4.2906 40.0701 0 35.653 0 30.3426V8.91452C0 7.90066 0.826378 7.07313 1.83883 7.07313C2.35874 7.07313 2.81844 7.28686 3.15775 7.62664C3.49706 7.96642 3.71049 8.42677 3.71049 8.91452V30.3371C3.71049 33.6198 6.3155 36.3545 9.62649 36.3819C12.7842 36.4147 15.4221 33.9596 15.6355 30.8577V9.62148C15.6355 9.50091 15.6355 9.37486 15.6355 9.2543C15.6355 9.22141 15.6355 9.19401 15.6355 9.16113C15.7286 7.22658 16.4017 5.44548 17.4743 4.00415C17.5345 3.91099 17.5947 3.8507 17.6604 3.75754C17.9067 3.45064 18.1803 3.14374 18.4594 2.86973C20.2052 1.12151 22.657 0.0473633 25.3277 0.0473633C30.6526 0.0747649 34.9159 4.49738 34.9159 9.80781Z" fill="white"/>
<path d="M15.6028 9.25436C15.6028 9.37492 15.6028 9.50097 15.6028 9.62154V30.8633C15.3893 33.9651 12.7843 36.4203 9.59373 36.3874C6.31558 36.3545 3.67773 33.6253 3.67773 30.3426V9.13379C3.73793 12.0164 5.97627 14.4113 8.76735 14.8443V28.0738C7.7549 28.4135 7.04892 29.3616 7.04892 30.4961C7.04892 31.91 8.21461 33.0718 9.62109 33.0718C11.0331 33.0718 12.1933 31.9374 12.1933 30.4961C12.1933 29.389 11.4873 28.441 10.4748 28.0738V14.8717C13.2331 14.4716 15.3784 12.2028 15.5645 9.4078C15.6028 9.34752 15.6028 9.28724 15.6028 9.25436Z" fill="url(#paint0_linear_14123_2392)"/>
<path d="M31.1724 9.13388C31.1724 8.98043 31.1396 8.85986 31.1122 8.70642C31.1122 8.64613 31.0794 8.58585 31.0794 8.52008C31.0466 8.39952 31.0192 8.27347 30.9864 8.12002C30.3132 5.60456 28.0421 3.69741 25.3166 3.67C22.1589 3.63712 19.5211 6.0923 19.3076 9.19416V30.4359C19.3076 30.5564 19.3076 30.6825 19.3076 30.8031C19.3076 30.7428 19.3076 30.7099 19.3076 30.6496C19.4937 27.8546 21.639 25.5858 24.3972 25.2186V12.0768C23.3848 11.737 22.6788 10.7889 22.6788 9.65451C22.6788 8.24059 23.8445 7.07876 25.251 7.07876C26.6575 7.07876 27.8231 8.21319 27.8231 9.65451C27.8231 10.7615 27.1172 11.7096 26.1047 12.0768V25.246C28.9232 25.6735 31.1341 28.0684 31.1943 30.9565V9.74768C31.2053 9.56135 31.2053 9.34761 31.1724 9.13388Z" fill="url(#paint1_linear_14123_2392)"/>
<defs>
<linearGradient id="paint0_linear_14123_2392" x1="9.60473" y1="10.6025" x2="9.69868" y2="34.8644" gradientUnits="userSpaceOnUse">
<stop offset="0.1416" stop-color="#2C7AFF"/>
<stop offset="0.8162" stop-color="#00D2FF"/>
</linearGradient>
<linearGradient id="paint1_linear_14123_2392" x1="25.2188" y1="5.14012" x2="25.3133" y2="29.4313" gradientUnits="userSpaceOnUse">
<stop offset="0.161458" stop-color="#00D2FF"/>
<stop offset="0.859375" stop-color="#2C7AFF"/>
</linearGradient>
</defs>
</svg>
